{"title":"A Dangerous Man-AC3-5,1-DVDRip[Eng]2010","uid":5259730,"size":1462673576,"categoryP":"video","categoryS":"movies","magnet":"?xt=urn:btih:a329354770fcd469c3d360d617c2947c31283256&amp;dn=A+Dangerous+Man-AC3-5%2C1-DVDRip%5BEng%5D2010&amp;tr=udp%3A%2F%2Ftracker.openbittorrent.com%3A80&amp;tr=udp%3A%2F%2Fopen.demonii.com%3A1337&amp;tr=udp%3A%2F%2Ftracker.coppersurfer.tk%3A6969&amp;tr=udp%3A%2F%2Fexodus.desync.com%3A6969","seeders":0,"leechers":1,"uploader":"FatFreddy31","files":-1,"time":1262698020,"description":" &lt;a href=&quot;http://www.imdb.com/title/tt1360767/&quot; rel=&quot;nofollow&quot; target=&quot;_NEW&quot;&gt;http://www.imdb.com/title/tt1360767/&lt;/a&gt;\n\nAction,Thriller\n\nDirector:Keoni Waxman\n\nCast:Steven Seagal/Byron Mann/Jeanettea Antonio, and others.\n\nPlot:\nAfter serving 15 years for a crime he didn't commit, Shane Daniels is released from jail with an apology from the State of Arizona. Within hours of his freedom, he unluckily bears witness to an illegal diamond deal gone wrong. Members of both the Mexican mafia and State Troopers are killed leaving a terrified girl and a bag of money. In this action packed thrill ride, Shane must fight his way through a corrupt town and take the girl to safety .....\n\nInfo:\n\nCovers included.\n\nGeneral\nComplete name                    : A Dangerous Man-AC3-5,1-DVDRip[Eng]2010.avi\nFormat                           : AVI\nFormat/Info                      : Audio Video Interleave\nFile size                        : 1.36 GiB\nDuration                         : 1h 30mn\nOverall bit rate                 : 2 155 Kbps\nWriting application              : VirtualDubMod 1.5.4.1 (build 2178/release)\nWriting library                  : VirtualDubMod build 2178/release\n\nVideo\nID                               : 0\nFormat                           : MPEG-4 Visual\nFormat profile                   : Simple@L3\nFormat settings, BVOP            : No\nFormat settings, QPel            : No\nFormat settings, GMC             : No warppoints\nFormat settings, Matrix          : Default (H.263)\nCodec ID                         : XVID\nCodec ID/Hint                    : XviD\nDuration                         : 1h 30mn\nBit rate                         : 1 697 Kbps\nWidth                            : 720 pixels\nHeight                           : 384 pixels\nDisplay aspect ratio             : 1.875\nFrame rate                       : 25.000 fps\nResolution                       : 24 bits\nColorimetry                      : 4:2:0\nScan type                        : Progressive\nBits/(Pixel*Frame)               : 0.246\nStream size                      : 1.07 GiB (79%)\nWriting library                  : XviD 1.1.2 (UTC 2006-11-01)\n\nAudio\nID                               : 1\nFormat                           : AC-3\nFormat/Info                      : Audio Coding 3\nCodec ID                         : 2000\nDuration                         : 1h 30mn\nBit rate mode                    : Constant\nBit rate                         : 448 Kbps\nChannel(s)                       : 6 channels\nChannel positions                : Front: L C R, Surround: L R, LFE\nSampling rate                    : 48.0 KHz\nStream size                      : 290 MiB (21%)\nAlignment                        : Split accross interleaves\nInterleave, duration             : 40 ms (1.00 video frame)\nInterleave, preload duration     : 500 ms\n\nEnjoy..","torrent":{"xt":"urn:btih:a329354770fcd469c3d360d617c2947c31283256","amp;dn":"A+Dangerous+Man-AC3-5%2C1-DVDRip%5BEng%5D2010","amp;tr":["udp%3A%2F%2Ftracker.openbittorrent.com%3A80","udp%3A%2F%2Fopen.demonii.com%3A1337","udp%3A%2F%2Ftracker.coppersurfer.tk%3A6969","udp%3A%2F%2Fexodus.desync.com%3A6969"],"infoHash":"a329354770fcd469c3d360d617c2947c31283256","infoHashBuffer":{"type":"Buffer","data":[163,41,53,71,112,252,212,105,195,211,96,214,23,194,148,124,49,40,50,86]},"announce":[],"urlList":[]}}